<svg width="102" height="24" viewBox="0 0 102 24" fill="none" xmlns="http://www.w3.org/2000/svg">
<g clip-path="url(#clip0_488_3345)">
<path d="M31.5 20.2151L31 18.2151C31 18.2151 36.5 15.7151 42 9.21509L41 8.21509L46.5 6.21509L45.5 12.2151L44 10.7151C44 10.7151 38.5 16.7151 31.5 20.2151Z" fill="#FF2A2A"/>
<path d="M34.9004 23.7151H31.5V21.7151C32.6695 21.1303 33.81 20.474 34.9004 19.7893V23.7151Z" fill="#FF2A2A"/>
<path d="M39.4004 23.7151H36V19.0793C37.2266 18.2629 38.3714 17.4221 39.4004 16.6233V23.7151Z" fill="#FF2A2A"/>
<path d="M43.9004 23.7151H40.5V15.7522C42.0466 14.4968 43.2347 13.4136 43.9004 12.7874V23.7151Z" fill="#FF2A2A"/>
<path d="M23.5 23.7163C26 21.9617 28.9 16.9163 30.5 23.7163H23.5Z" fill="#222222"/>
<path d="M14 18.7151L17.5 19.2151C18.5 20.7151 18.5 22.2151 18.5 23.7151H9.5C9.5 22.2151 10 19.7151 14 18.7151Z" fill="#FF2A2A"/>
<path d="M9.5 23.7151C9.5 20.1151 12 18.215 14.5 18.7151L16 19.2151C15 18.2151 13.9 13.415 19.5 12.215C20.5 12.0483 22.6 12.4151 23 13.2151" stroke="#444444"/>
<path d="M19.5 20.2151L21 22.2151" stroke="#444444" stroke-width="0.4"/>
<path d="M17.0002 13.2151C18.9999 11.7151 22.4998 11.2151 24.9998 13.7151C26.4998 15.2151 27.4998 17.7151 25.9998 19.2151C23.9998 20.7151 20.9996 20.2151 16 20.7151C15 17.2151 14.4999 15.2151 17.0002 13.2151Z" fill="#FF2A2A"/>
<path d="M21.9617 15.3005C22.4721 16.5834 22.2314 17.4942 21.4617 17.8005C20.6919 18.1068 19.4728 17.5834 18.9624 16.3005C18.4519 15.0176 18.6919 13.6068 19.4616 13.3005C20.2314 12.9942 21.4512 14.0177 21.9617 15.3005Z" fill="white"/>
<path d="M20.164 13.4965C20.2512 13.4521 20.3644 13.4498 20.4921 13.4838C21.0698 13.8294 21.6476 14.5164 21.9599 15.3012C22.0849 15.6154 22.1649 15.9071 22.2031 16.1732C22.1915 16.4631 22.0994 16.6746 21.9355 16.7582C21.5649 16.9469 20.8239 16.5313 20.3515 15.6039C19.8793 14.6766 19.7938 13.6858 20.164 13.4965Z" fill="#211F22"/>
<path d="M26.2517 14.9678C26.6964 16.0855 26.6706 16.9482 26 17.2151C25.2921 17.4968 24.4443 16.8328 23.9995 15.7151C23.5548 14.5975 23.403 13.4921 24.0736 13.2253C24.7442 12.9584 25.8069 13.8501 26.2517 14.9678Z" fill="white"/>
<path d="M24.6864 13.3957C24.7623 13.357 24.8604 13.3554 24.9715 13.3849C25.475 13.686 25.9787 14.2841 26.2508 14.9679C26.3602 15.2428 26.4297 15.498 26.4628 15.7306C26.4522 15.9818 26.3717 16.1649 26.2294 16.2375C25.9064 16.4019 25.2611 16.0397 24.8495 15.2316C24.4379 14.4234 24.3635 13.5602 24.6864 13.3957Z" fill="#211F22"/>
<path d="M22.5 12.215C23.5 10.5484 26 7.81503 28 10.215" stroke="#FF2A2A" stroke-linecap="round"/>
<path d="M19.5 12.2152C20 10.2151 21 7.21501 23.5 7.715" stroke="#FF2A2A" stroke-linecap="round"/>
<path d="M20.1514 21.6424C20.4086 21.5138 20.7012 21.4607 21.0176 21.5144C21.3254 21.5667 21.6283 21.7149 21.9268 21.9402C22.3903 22.2902 22.8933 22.8669 23.458 23.7146H22.2344C21.8782 23.2421 21.5768 22.9305 21.3232 22.739C21.1116 22.5793 20.9556 22.5187 20.8496 22.5008C20.7522 22.4843 20.6746 22.499 20.5986 22.5369C20.4147 22.6288 20.2161 22.8686 20.0029 23.2644C19.9256 23.408 19.8534 23.5601 19.7822 23.7146H18.6797C18.7182 23.6297 18.7616 23.5396 18.8057 23.4422C18.8987 23.2364 19.004 23.0091 19.1221 22.7898C19.3463 22.3734 19.6689 21.8836 20.1514 21.6424Z" fill="#222222"/>
<path d="M14.4717 21.6424C14.7289 21.5138 15.0215 21.4607 15.3379 21.5145C15.6458 21.5668 15.9485 21.7148 16.2471 21.9402C16.7106 22.2903 17.2135 22.8667 17.7783 23.7147H16.5547C16.1984 23.242 15.8972 22.9306 15.6436 22.7391C15.4318 22.5792 15.2759 22.5188 15.1699 22.5008C15.0724 22.4843 14.9949 22.4989 14.9189 22.5369C14.735 22.6289 14.5364 22.8685 14.3232 23.2645C14.2459 23.4081 14.1738 23.56 14.1025 23.7147H13C13.0386 23.6296 13.0819 23.5398 13.126 23.4422C13.219 23.2364 13.3243 23.0092 13.4424 22.7898C13.6666 22.3734 13.9891 21.8838 14.4717 21.6424Z" fill="#222222"/>
<path d="M16 1.21484C22.5 -1.78513 24.5 1.71484 26.5 1.71484C28.3749 1.71484 30.2497 3.47264 31.3008 6.16406L31.5996 6.99023C32.6846 9.77724 35.4997 10.7461 35.5 11.7148C35.5 12.7148 33 15.7147 32 16.2148C31.2 16.6148 30.6667 12.7148 30.5 10.7148C29.9999 9.54812 28.0999 7.01481 24.5 6.21484C20.0001 5.21488 17 7.21486 15.5 8.71484C13.1284 11.0865 10.0002 12.7149 10 14.2148C10 16.7148 7.50011 17.7149 9.5 21.7148V23.7148H0C1.62112e-05 21.5482 0.767338 17.2032 3 15.7148C4.49996 14.7149 4.00003 10.2149 8.5 7.71484C11.8286 5.86553 9.50002 4.21484 16 1.21484Z" fill="#222222"/>
<path d="M63.1823 5.79995H65.3423C65.5623 5.79995 65.7023 5.91995 65.6823 6.15995L64.5223 22.56C64.5223 22.78 64.3823 22.92 64.1423 22.92H61.9823C61.7423 22.92 61.6423 22.78 61.6423 22.56L62.1823 14.96H60.8423L60.3423 22.16C60.3223 22.4 60.1623 22.52 59.9223 22.52H57.8423C57.6223 22.52 57.5023 22.4 57.5223 22.16L58.6223 6.41995C58.6423 6.17995 58.8023 6.05995 59.0223 6.05995H61.1023C61.3423 6.05995 61.4623 6.17995 61.4423 6.41995L61.0223 12.5H62.3623L62.8023 6.15995C62.8223 5.91995 62.9423 5.79995 63.1823 5.79995ZM50.5623 7.01995H57.4623C57.7023 7.01995 57.7623 7.21995 57.6023 7.45995L56.9623 8.35995L56.7623 11.3C56.4823 15.26 54.7623 17.62 50.2023 20.12C50.0623 20.22 49.8623 20.14 49.8023 20.02L48.9023 18.24C48.8223 18.06 48.8423 17.82 49.0623 17.7C52.5223 15.84 53.5223 14.04 53.7023 11.5L53.8423 9.49995H50.3623C50.1223 9.49995 50.0223 9.37995 50.0423 9.13995L50.1623 7.37995C50.1823 7.15995 50.3223 7.01995 50.5623 7.01995ZM80.0008 5.79995H82.2208C82.4408 5.79995 82.5808 5.91995 82.5608 6.15995L81.4008 22.58C81.3808 22.8 81.2408 22.92 81.0008 22.92H78.8008C78.5608 22.92 78.4408 22.8 78.4608 22.58L79.6208 6.15995C79.6408 5.91995 79.7808 5.79995 80.0008 5.79995ZM77.5608 6.95995C77.8008 6.95995 77.8608 7.21995 77.7008 7.43995L77.0008 8.83995L76.2808 19C76.2608 19.22 76.0408 19.44 75.7808 19.52C74.1608 19.96 70.8808 20.38 69.2008 20.32C67.7408 20.26 67.0608 19.66 67.1808 18.18L67.9408 7.33995C67.9408 7.09995 68.0808 6.95995 68.3208 6.95995H77.5608ZM73.4608 17.42L74.0208 9.43995H70.7008L70.1408 17.38C70.1408 17.58 70.2808 17.7 70.4608 17.7C71.1808 17.72 72.6808 17.6 73.4608 17.42Z" fill="white"/>
<path d="M97.9392 11.62H100.559C100.759 11.62 100.859 11.76 100.719 12L99.7392 13.6C99.6192 13.8 99.4192 13.94 99.1792 13.94H93.8992L93.7992 15.22H98.4392C98.6792 15.22 98.7992 15.34 98.7792 15.58L98.4792 19.78C98.4592 20.06 98.2992 20.22 98.0392 20.22H88.2192L88.1792 20.54C88.1592 20.92 88.3992 21.14 89.7192 21.14C92.3192 21.14 96.1992 21.12 98.3992 20.88C98.7392 20.86 98.8392 20.88 98.8192 21.1L98.7392 22.48C98.7192 22.64 98.5792 22.8 98.3392 22.86C95.9392 23.22 92.1792 23.24 89.6992 23.24C86.3792 23.24 85.3592 22.68 85.2592 21.14C85.1992 20.3 85.3792 19.04 85.4792 18.48C85.4992 18.3 85.5792 18.24 85.8192 18.24H95.6192L95.6792 17.4H85.9392C85.6992 17.4 85.6192 17.24 85.6392 17.02L85.7392 15.58C85.7592 15.34 85.8792 15.22 86.1192 15.22H90.7992L90.8992 13.94H84.7792C84.5392 13.94 84.3992 13.82 84.4192 13.6L84.5392 11.92C84.5392 11.72 84.6792 11.62 84.8992 11.62H94.7992C95.6192 10.9 96.0992 9.91995 96.1592 9.11995L96.2192 8.23995H86.6392C86.3992 8.23995 86.2992 8.11995 86.2992 7.93995L86.4192 6.39995C86.4392 6.15995 86.5792 6.05995 86.8192 6.05995H100.059C100.319 6.05995 100.339 6.27995 100.199 6.47995L99.5392 7.25995L99.4192 8.67995C99.3392 9.71995 98.7192 10.9 97.9392 11.62Z" fill="#FF2A2A"/>
</g>
<defs>
<clipPath id="clip0_488_3345">
<rect width="102" height="24" fill="white"/>
</clipPath>
</defs>
</svg>
