<svg width="79" height="28" viewBox="0 0 79 28" fill="none" xmlns="http://www.w3.org/2000/svg">
<path d="M0 14C0 21.7268 6.27319 28 14 28C21.7268 28 28 21.7268 28 14C28 6.27319 21.7268 0 14 0C6.27319 0 0 6.27319 0 14Z" fill="#FF2A2A"/>
<path d="M7.46667 11.2C7.46667 7.93333 10.2667 5.6 14 5.6C17.7333 5.6 20.5333 7.93333 20.5333 11.2C20.5333 13.5333 18.6667 14.9333 17.2667 15.8667C19.1333 16.8 21 18.6667 21 21.4667C21 24.7333 17.7333 27.0667 14 27.0667C10.2667 27.0667 7 24.7333 7 21.4667C7 18.6667 8.86667 16.8 10.7333 15.8667C9.33333 14.9333 7.46667 13.5333 7.46667 11.2Z" fill="white"/>
<path d="M11.8601 4.00706C12.2243 4.37152 12.2244 4.96197 11.8601 5.32639C11.4957 5.6908 10.9053 5.69065 10.5408 5.32639L7.05902 1.84462C7.6288 1.51834 8.22347 1.23157 8.83978 0.986711L11.8601 4.00706ZM19.1598 0.986711C19.7759 1.23152 20.3697 1.51956 20.9394 1.84576L17.4599 5.32639C17.0954 5.69073 16.505 5.69073 16.1406 5.32639C15.7763 4.96193 15.7762 4.37151 16.1406 4.00706L19.1598 0.986711Z" fill="white"/>
<path d="M10.5467 10.2667C10.5467 10.8848 11.0485 11.3867 11.6667 11.3867C12.2848 11.3867 12.7867 10.8848 12.7867 10.2667C12.7867 9.64852 12.2848 9.14667 11.6667 9.14667C11.0485 9.14667 10.5467 9.64852 10.5467 10.2667Z" fill="#FF2A2A"/>
<path d="M15.2133 10.2667C15.2133 10.8848 15.7152 11.3867 16.3333 11.3867C16.9515 11.3867 17.4533 10.8848 17.4533 10.2667C17.4533 9.64852 16.9515 9.14667 16.3333 9.14667C15.7152 9.14667 15.2133 9.64852 15.2133 10.2667Z" fill="#FF2A2A"/>
<path d="M39.486 0.455298H41.358V5.1533H43.032V0.185299H44.904V15.9353H43.032V6.7913H41.358V15.3593H39.486V0.455298ZM30.738 10.4813C31.542 10.0133 32.25 9.4973 32.862 8.9333C33.474 8.3693 33.99 7.7753 34.41 7.1513C34.83 6.5153 35.154 5.8553 35.382 5.1713C35.61 4.4873 35.754 3.7973 35.814 3.1013H31.8V1.3733H37.938C37.938 3.8333 37.44 5.9213 36.444 7.6373C35.46 9.3413 34.002 10.7693 32.07 11.9213L30.738 10.4813ZM58.7226 0.185299H60.6666V15.9353H58.7226V0.185299ZM47.9586 11.2013V1.2833H55.7886V11.2013H47.9586ZM53.8626 2.9213H49.9026V9.5633H53.8626V2.9213ZM65.5752 16.5833V12.0473H73.6752V10.7333H65.5572V9.1313H69.6252V7.5113H63.0372V5.8913H73.3332C73.4652 5.3033 73.5612 4.6973 73.6212 4.0733C73.6932 3.4493 73.7412 2.8913 73.7652 2.3993H65.3232V0.743298H75.7272C75.7272 1.6433 75.6972 2.5313 75.6372 3.4073C75.5772 4.2833 75.4632 5.1113 75.2952 5.8913H78.1572V7.5113H71.5872V9.1313H75.6192V13.5953H67.5012V14.9633H76.0152V16.5833H65.5752Z" fill="white"/>
<path d="M31.0625 26H30.1484L32.1797 20.3438H33.1719L35.2109 26H34.2969L33.7812 24.5078H31.5781L31.0625 26ZM31.8281 23.7891H33.5312L32.6953 21.375H32.6562L31.8281 23.7891ZM43.1422 20.3438V26H42.3531L39.4859 21.8672H39.4391V26H38.5797V20.3438H39.3766L42.2437 24.4844H42.2984V20.3438H43.1422ZM46.6672 21.0859V20.3438H51.05V21.0859H49.2922V26H48.4328V21.0859H46.667ZM54.575 26V20.3438H55.4344V22.7969H58.2469V20.3438H59.1063V26H58.2469V23.5313H55.4344V26H54.575ZM63.7719 20.3438V26H62.9125V20.3438H63.7719ZM67.5703 26V20.3438H68.4297V25.2578H70.9844V26H67.5703ZM74.5172 26V20.3438H75.3766V25.2578H77.9313V26H74.5172Z" fill="#FF2A2A"/>
</svg>
